<svg width="19" height="19" viewBox="0 0 19 19" fill="none" xmlns="http://www.w3.org/2000/svg">
<path d="M1.58301 4.75L7.05582 7.85093C9.07344 8.99413 9.92591 8.99413 11.9435 7.85093L17.4163 4.75" stroke="#1E1E1E" stroke-opacity="0.5" stroke-width="1.5" stroke-linejoin="round"/>
<path d="M1.59549 10.6682C1.64724 13.0951 1.67312 14.3085 2.5686 15.2074C3.46407 16.1063 4.71035 16.1376 7.20292 16.2002C8.73912 16.2388 10.2602 16.2388 11.7965 16.2002C14.289 16.1376 15.5353 16.1063 16.4308 15.2074C17.3263 14.3085 17.3521 13.0951 17.4038 10.6682C17.4205 9.88782 17.4205 9.11214 17.4038 8.3318C17.3521 5.90491 17.3263 4.69147 16.4308 3.79259C15.5353 2.8937 14.289 2.86239 11.7965 2.79977C10.2602 2.76116 8.73912 2.76116 7.20291 2.79976C4.71035 2.86238 3.46407 2.89369 2.56859 3.79258C1.67312 4.69146 1.64724 5.9049 1.59548 8.3318C1.57884 9.11214 1.57885 9.88782 1.59549 10.6682Z" stroke="#1E1E1E" stroke-opacity="0.5" stroke-width="1.5" stroke-linejoin="round"/>
</svg>
