<svg width="13" height="14" viewBox="0 0 13 14" fill="none" xmlns="http://www.w3.org/2000/svg">
<path d="M1.53125 7.28809C1.53125 5.61239 1.53125 4.77454 2.04382 4.25397C2.55638 3.7334 3.38134 3.7334 5.03125 3.7334H8.03125C9.68115 3.7334 10.5061 3.7334 11.0187 4.25397C11.5312 4.77454 11.5312 5.61239 11.5312 7.28809V8.30371C11.5312 9.97941 11.5312 10.8173 11.0187 11.3378C10.5061 11.8584 9.68115 11.8584 8.03125 11.8584H5.03125C3.38134 11.8584 2.55638 11.8584 2.04382 11.3378C1.53125 10.8173 1.53125 9.97941 1.53125 8.30371V7.28809Z" stroke="white" stroke-linecap="round" stroke-linejoin="round"/>
<path d="M5.03125 7.7959H8.03125M6.53125 6.1709V9.4209" stroke="white" stroke-linecap="round" stroke-linejoin="round"/>
<path d="M9.03125 3.7334C9.03125 2.38898 8.77225 2.1084 7.53125 2.1084H5.53125C4.29025 2.1084 4.03125 2.38898 4.03125 3.7334" stroke="white" stroke-linecap="round" stroke-linejoin="round"/>
</svg>
