<svg width="55" height="56" viewBox="0 0 55 56" fill="none" xmlns="http://www.w3.org/2000/svg">
<path d="M43.0674 21.3644V34.4995C43.0674 36.0901 42.444 37.6156 41.3342 38.7404C40.2245 39.8651 38.7194 40.497 37.1499 40.497H25.3374C24.5614 40.497 23.793 40.3417 23.0763 40.04C22.3596 39.7383 21.7088 39.2962 21.1611 38.739C20.6134 38.1818 20.1796 37.5204 19.8847 36.7929C19.5898 36.0654 19.4395 35.286 19.4424 34.4995V14.546C19.4424 12.9614 20.0635 11.4417 21.169 10.3212C22.2746 9.20078 23.774 8.57131 25.3374 8.57131H30.4449C30.6995 8.57018 30.9517 8.61995 31.1872 8.71778C31.4227 8.8156 31.6369 8.95956 31.8174 9.14141L42.4824 19.9505C42.6676 20.1351 42.8147 20.3551 42.9151 20.5979C43.0156 20.8406 43.0673 21.1012 43.0674 21.3644Z" stroke="#6F64E7" stroke-width="2" stroke-miterlimit="10" stroke-linecap="round"/>
<path d="M31.2547 9.52916V18.6508C31.2517 18.9132 31.3001 19.1737 31.3972 19.417C31.4942 19.6604 31.6379 19.8818 31.82 20.0684C32.0021 20.2551 32.2189 20.4032 32.4579 20.5044C32.6968 20.6055 32.9532 20.6576 33.2122 20.6575H42.2122C42.2877 20.6517 42.36 20.6245 42.421 20.5791C42.482 20.5338 42.5293 20.4719 42.5574 20.4007C42.5855 20.3295 42.5934 20.2517 42.5801 20.1762C42.5668 20.1006 42.5329 20.0304 42.4822 19.9734L31.9297 9.25551C31.8779 9.19285 31.808 9.14838 31.7298 9.12843C31.6516 9.10848 31.5692 9.11408 31.4943 9.14443C31.4195 9.17477 31.356 9.22832 31.313 9.29741C31.2699 9.3665 31.2495 9.44761 31.2547 9.52916Z" stroke="#6F64E7" stroke-width="2" stroke-linecap="round" stroke-linejoin="round"/>
<path d="M36.3174 40.4743V41.3408C36.3174 42.9314 35.6939 44.4569 34.5842 45.5817C33.4744 46.7064 31.9693 47.3383 30.3999 47.3383H18.5874C17.0219 47.3322 15.5225 46.6977 14.4176 45.5736C13.3127 44.4495 12.6924 42.9275 12.6924 41.3408V21.3873C12.6983 19.8045 13.3213 18.2883 14.4255 17.1692C15.5298 16.05 17.0258 15.4186 18.5874 15.4126H19.4424" stroke="#6F64E7" stroke-width="2" stroke-miterlimit="10" stroke-linecap="round"/>
</svg>
