<svg width="25" height="25" viewBox="0 0 25 25" fill="none" xmlns="http://www.w3.org/2000/svg">
<path d="M6.07129 7.60107L6.82129 18.7211C6.82129 19.2515 7.032 19.7602 7.40708 20.1353C7.78215 20.5104 8.29086 20.7211 8.82129 20.7211H15.3213C15.8517 20.7211 16.3604 20.5104 16.7355 20.1353C17.1106 19.7602 17.3213 19.2515 17.3213 18.7211L18.0713 7.60107" stroke="#FF1B0B" stroke-width="1.5" stroke-linecap="round" stroke-linejoin="round"/>
<path d="M13.5713 13.2212V17.7212" stroke="#FF1B0B" stroke-width="1.5" stroke-linecap="round" stroke-linejoin="round"/>
<path d="M10.5713 13.2212V17.7212" stroke="#FF1B0B" stroke-width="1.5" stroke-linecap="round" stroke-linejoin="round"/>
<path d="M5.07129 7.60107H19.0713" stroke="#FF1B0B" stroke-width="1.5" stroke-linecap="round" stroke-linejoin="round"/>
<path d="M14.5713 7.60107V5.60107C14.5713 5.33586 14.4659 5.0815 14.2784 4.89397C14.0909 4.70643 13.8365 4.60107 13.5713 4.60107H10.5713C10.3061 4.60107 10.0517 4.70643 9.86418 4.89397C9.67665 5.0815 9.57129 5.33586 9.57129 5.60107V7.60107" stroke="#FF1B0B" stroke-width="1.5" stroke-linecap="round" stroke-linejoin="round"/>
</svg>
