<svg width="28" height="26" viewBox="0 0 28 26" fill="none" xmlns="http://www.w3.org/2000/svg">
<g clip-path="url(#clip0_2876_19140)">
<path d="M16.1787 11.5611L16.1787 10.8844L16.1787 10.2077L16.1787 9.53105L16.1787 8.85436L16.1787 8.17767L16.1787 7.50098L16.1787 6.82429L16.1787 6.1476L16.1787 5.47091L16.1787 4.79422L16.1787 4.11753L16.1787 3.44084L16.1787 2.76415L16.1787 2.08746L16.1787 1.41077L16.1787 0.734078L16.871 0.734078L17.5613 0.734078L18.2536 0.734078L18.9459 0.734079L19.6381 0.734079L20.3304 0.734079L21.0226 0.734079L21.7149 0.734079L22.4015 0.734079L23.0938 0.734079L23.786 0.734079L24.4783 0.734079L25.1706 0.734079L25.8591 0.734079L26.5494 0.734079L27.2417 0.734079L27.2417 1.26885L27.2417 1.80362L27.2417 2.33839L27.2417 2.87316L27.2417 3.40793L27.2417 3.9427L27.2417 4.47747L27.2417 5.01224L27.2417 5.54701L27.2417 6.08179L27.2417 6.61655L27.2417 7.15133L27.2417 7.6861L27.2417 8.22087L27.2417 8.75564L27.2417 9.29041C27.2417 9.58042 27.2398 9.86426 27.2342 10.144C27.2286 10.4237 27.2229 10.6973 27.2136 10.9667C27.2042 11.2361 27.1929 11.5015 27.1779 11.7606C27.1629 12.0198 27.146 12.2748 27.1273 12.5237C27.1085 12.7726 27.086 13.0173 27.0635 13.258C27.041 13.4986 27.0128 13.7331 26.9847 13.9614C26.9565 14.1918 26.9246 14.416 26.8909 14.6361C26.8571 14.8561 26.8215 15.07 26.7839 15.2798C26.7464 15.4896 26.7052 15.6933 26.662 15.8928C26.6189 16.0923 26.5738 16.2877 26.5251 16.4769C26.4782 16.6661 26.4275 16.8512 26.375 17.0302C26.3224 17.2091 26.268 17.384 26.2099 17.5547C26.1517 17.7233 26.0936 17.8899 26.0298 18.0483C25.9679 18.2087 25.9022 18.363 25.8365 18.5131C25.769 18.6633 25.6996 18.8073 25.6283 18.9471C25.557 19.087 25.482 19.2207 25.4069 19.3503C25.3075 19.523 25.2024 19.6938 25.0955 19.8604C24.9886 20.027 24.876 20.1936 24.7616 20.356C24.6471 20.5185 24.5289 20.679 24.4051 20.8353C24.2832 20.9916 24.1575 21.1459 24.028 21.2981C23.8986 21.4503 23.7654 21.5984 23.6285 21.7464C23.4915 21.8925 23.3508 22.0365 23.2063 22.1784C23.0619 22.3203 22.9137 22.4581 22.7636 22.5939C22.6116 22.7296 22.4578 22.8633 22.2983 22.9929C22.1389 23.1245 21.9775 23.252 21.8106 23.3775C21.6436 23.503 21.4748 23.6264 21.3003 23.7457C21.1277 23.865 20.9495 23.9843 20.7694 24.0974C20.5893 24.2126 20.4035 24.3236 20.2159 24.4347C20.0283 24.5437 19.837 24.6507 19.64 24.7556C19.4449 24.8605 19.246 24.9612 19.0434 25.06C18.8408 25.1587 18.6344 25.2554 18.4243 25.35C18.2142 25.4446 18.0003 25.5351 17.7827 25.6235L17.6251 25.3973L17.4675 25.171L17.31 24.9448L17.1524 24.7185L16.9948 24.4923L16.8372 24.266L16.6796 24.0398L16.522 23.8135L16.3644 23.5873L16.2068 23.361L16.0493 23.1348L15.8917 22.9085L15.7341 22.6823L15.5765 22.456L15.4189 22.2298L15.2613 22.0035C15.3926 21.9542 15.5221 21.9028 15.6497 21.8493C15.7772 21.7958 15.9011 21.7423 16.0249 21.6868C16.1468 21.6313 16.2688 21.5737 16.3869 21.514C16.5051 21.4544 16.6214 21.3947 16.7359 21.333C16.8503 21.2713 16.961 21.2076 17.0717 21.1438C17.1805 21.078 17.2893 21.0122 17.3944 20.9443C17.4994 20.8764 17.6026 20.8065 17.7039 20.7366C17.8052 20.6646 17.9047 20.5926 18.0003 20.5185C18.0979 20.4445 18.1917 20.3684 18.2836 20.2923C18.3755 20.2162 18.4656 20.136 18.5538 20.0557C18.6419 19.9755 18.7282 19.8933 18.8108 19.811C18.8952 19.7287 18.9759 19.6423 19.0547 19.558C19.1335 19.4716 19.2104 19.3832 19.2873 19.2947C19.3623 19.2063 19.4355 19.1158 19.5068 19.0232C19.5781 18.9307 19.6456 18.8381 19.7132 18.7414C19.7807 18.6448 19.8445 18.5502 19.9064 18.4514C19.9683 18.3527 20.0283 18.2519 20.0884 18.147C20.1465 18.0421 20.2047 17.9372 20.2591 17.8262C20.3135 17.7172 20.3679 17.604 20.4204 17.4889C20.473 17.3737 20.5217 17.2564 20.5705 17.1351C20.6193 17.0137 20.6662 16.8903 20.7112 16.7649C20.7562 16.6394 20.7994 16.5098 20.8407 16.3782C20.8819 16.2465 20.9213 16.1108 20.9607 15.973C20.9982 15.8352 21.0358 15.6953 21.0695 15.5513C21.1033 15.4074 21.1371 15.2613 21.169 15.1132C21.2009 14.9651 21.229 14.8129 21.2571 14.6587C21.2853 14.5044 21.3115 14.3481 21.3359 14.1877C21.3603 14.0272 21.3828 13.8648 21.4035 13.7002C21.4241 13.5357 21.4429 13.367 21.4616 13.1942C21.4785 13.0235 21.4954 12.8487 21.5085 12.6718C21.5217 12.4949 21.5348 12.316 21.546 12.1329C21.5573 11.9499 21.5648 11.7647 21.5723 11.5776L21.2365 11.5776L20.9007 11.5776L20.5649 11.5776L20.2291 11.5776L19.8933 11.5776L19.5556 11.5776L19.2198 11.5776L18.884 11.5776L18.5463 11.5776L18.2105 11.5776L17.8615 11.5776L17.5238 11.5776L17.188 11.5776L16.8522 11.5776L16.5145 11.5776L16.1787 11.5776L16.1787 11.5611Z" fill="#6F64E7"/>
<path d="M1.03715 11.5611L1.03715 10.8844L1.03715 10.2077L1.03715 9.53105L1.03715 8.85436L1.03715 8.17767L1.03715 7.50098L1.03715 6.82429L1.03715 6.1476L1.03715 5.47091L1.03715 4.79422L1.03715 4.11753L1.03715 3.44084L1.03715 2.76415L1.03715 2.08746L1.03715 1.41077L1.03715 0.734078L1.72941 0.734078L2.42167 0.734078L3.11393 0.734078L3.80619 0.734079L4.49844 0.734079L5.1907 0.734079L5.88296 0.734079L6.57522 0.734079L7.26748 0.734079L7.95973 0.734079L8.65199 0.734079L9.34425 0.734079L10.0365 0.734079L10.7288 0.734079L11.421 0.734079L12.1133 0.734079L12.1133 1.26885L12.1133 1.80362L12.1133 2.33839L12.1133 2.87316L12.1133 3.40793L12.1133 3.9427L12.1133 4.47747L12.1133 5.01224L12.1133 5.54701L12.1133 6.08179L12.1133 6.61655L12.1133 7.15133L12.1133 7.6861L12.1133 8.22087L12.1133 8.75564L12.1133 9.29041C12.1133 9.58042 12.1114 9.86426 12.1058 10.144C12.1001 10.4237 12.0945 10.6973 12.0851 10.9667C12.0758 11.2361 12.0645 11.5015 12.0495 11.7606C12.0345 12.0198 12.0176 12.2748 11.9988 12.5237C11.9801 12.7726 11.9576 13.0173 11.9351 13.258C11.9107 13.4966 11.8844 13.7331 11.8563 13.9614C11.8281 14.1897 11.7962 14.416 11.7625 14.6361C11.7287 14.8561 11.693 15.07 11.6555 15.2798C11.618 15.4896 11.5767 15.6933 11.5336 15.8928C11.4904 16.0923 11.4454 16.2877 11.3966 16.4769C11.3497 16.6661 11.2991 16.8512 11.2466 17.0302C11.194 17.2091 11.1396 17.384 11.0815 17.5547C11.0233 17.7233 10.9651 17.8899 10.9032 18.0483C10.8413 18.2087 10.7775 18.363 10.71 18.5131C10.6425 18.6633 10.5731 18.8073 10.5018 18.9471C10.4305 19.087 10.3554 19.2207 10.2804 19.3503C10.181 19.523 10.0759 19.6938 9.96897 19.8604C9.86204 20.027 9.74947 20.1936 9.63504 20.356C9.5206 20.5185 9.40241 20.679 9.27859 20.8353C9.15665 20.9916 9.03095 21.1459 8.9015 21.2981C8.77206 21.4503 8.63886 21.5984 8.50191 21.7464C8.36496 21.8925 8.22425 22.0365 8.0798 22.1784C7.93534 22.3203 7.78714 22.4581 7.63705 22.5939C7.48509 22.7296 7.33126 22.8633 7.1718 22.9929C7.01233 23.1245 6.85099 23.252 6.68403 23.3775C6.51706 23.503 6.34821 23.6264 6.17374 23.7457C6.00115 23.865 5.82293 23.9843 5.64283 24.0974C5.46273 24.2126 5.277 24.3236 5.08939 24.4347C4.90179 24.5437 4.71043 24.6507 4.51345 24.7556C4.31834 24.8605 4.11948 24.9612 3.91687 25.06C3.71426 25.1587 3.50789 25.2554 3.29778 25.35C3.08766 25.4446 2.87379 25.5351 2.65617 25.6235L2.49858 25.3973L2.341 25.171L2.18341 24.9448L2.02582 24.7185L1.86824 24.4923L1.71065 24.266L1.55306 24.0398L1.39547 23.8135L1.23789 23.5873L1.0803 23.361L0.922714 23.1348L0.765125 22.9085L0.607538 22.6823L0.449951 22.456L0.292365 22.2298L0.134775 22.0035C0.266098 21.9542 0.395546 21.9028 0.523117 21.8493C0.650688 21.7958 0.774506 21.7423 0.898324 21.6868C1.02027 21.6313 1.14221 21.5737 1.2604 21.514C1.37859 21.4544 1.4949 21.3947 1.60934 21.333C1.72378 21.2713 1.83447 21.2076 1.94515 21.1438C2.05396 21.078 2.16278 21.0122 2.26783 20.9443C2.37289 20.8764 2.47607 20.8065 2.57738 20.7366C2.67868 20.6646 2.77811 20.5926 2.87379 20.5185C2.97135 20.4445 3.06515 20.3684 3.15707 20.2923C3.249 20.2162 3.33905 20.136 3.42722 20.0557C3.5154 19.9755 3.6017 19.8933 3.68424 19.811C3.76866 19.7287 3.84933 19.6423 3.92813 19.558C4.00692 19.4716 4.08384 19.3832 4.16076 19.2947C4.2358 19.2063 4.30896 19.1158 4.38025 19.0232C4.45154 18.9307 4.51908 18.8381 4.58662 18.7414C4.65228 18.6468 4.71794 18.5502 4.77985 18.4514C4.84176 18.3527 4.90179 18.2519 4.96182 18.147C5.01998 18.0421 5.07814 17.9372 5.13254 17.8262C5.18695 17.7172 5.24135 17.604 5.29388 17.4889C5.34641 17.3737 5.39519 17.2564 5.44397 17.1351C5.49274 17.0137 5.53964 16.8903 5.58467 16.7649C5.62969 16.6394 5.67284 16.5098 5.71412 16.3782C5.75539 16.2465 5.79478 16.1108 5.83418 15.973C5.8717 15.8352 5.90922 15.6953 5.94299 15.5513C5.97676 15.4074 6.01053 15.2613 6.04242 15.1132C6.07431 14.9651 6.10246 14.8129 6.1306 14.6587C6.15874 14.5044 6.185 14.3481 6.20939 14.1877C6.23378 14.0272 6.25629 13.8648 6.27693 13.7002C6.29756 13.5357 6.31632 13.367 6.33508 13.1942C6.35197 13.0235 6.36885 12.8487 6.38198 12.6718C6.39512 12.4949 6.40825 12.316 6.41951 12.1329C6.43076 11.9499 6.43827 11.7647 6.44577 11.5776L6.10808 11.5776L5.7704 11.5776L5.43271 11.5776L5.09502 11.5776L4.75734 11.5776L4.41965 11.5776L4.08196 11.5776L3.74428 11.5776L3.40659 11.5776L3.0689 11.5776L2.73122 11.5776L2.39353 11.5776L2.05584 11.5776L1.71815 11.5776L1.38047 11.5776L1.03715 11.5776L1.03715 11.5611Z" fill="#6F64E7"/>
</g>
<defs>
<clipPath id="clip0_2876_19140">
<rect width="27.12" height="24.8915" fill="white" transform="translate(27.2417 25.6133) rotate(-180)"/>
</clipPath>
</defs>
</svg>
