<svg width="28" height="26" viewBox="0 0 28 26" fill="none" xmlns="http://www.w3.org/2000/svg">
<g clip-path="url(#clip0_2876_19136)">
<path d="M11.8213 14.446V15.1226V15.7993V16.476V17.1527V17.8294V18.5061V19.1828V19.8595V20.5362V21.2129V21.8896V22.5662V23.2429V23.9196V24.5963V25.273H11.129H10.4387H9.7464H9.05414H8.36188H7.66962H6.97737H6.28511H5.59848H4.90622H4.21396H3.5217H2.82945H2.14094H1.45056H0.758301V24.7382V24.2035V23.6687V23.1339V22.5991V22.0644V21.5296V20.9948V20.4601V19.9253V19.3905V18.8558V18.321V17.7862V17.2514V16.7167C0.758301 16.4267 0.760177 16.1428 0.765805 15.8631C0.771433 15.5834 0.777061 15.3098 0.786441 15.0404C0.795822 14.7709 0.807078 14.5056 0.822086 14.2464C0.837094 13.9873 0.853979 13.7322 0.872739 13.4834C0.891499 13.2345 0.914012 12.9897 0.936524 12.7491C0.959037 12.5084 0.987177 12.274 1.01532 12.0457C1.04346 11.8153 1.07535 11.5911 1.10912 11.371C1.14289 11.1509 1.17853 10.937 1.21605 10.7272C1.25357 10.5174 1.29485 10.3138 1.338 10.1143C1.38115 9.9148 1.42617 9.71941 1.47495 9.53018C1.52185 9.34095 1.5725 9.15584 1.62503 8.9769C1.67756 8.79795 1.73196 8.62313 1.79012 8.45241C1.84828 8.28375 1.90644 8.11715 1.97022 7.95878C2.03213 7.79834 2.09779 7.64408 2.16345 7.49394C2.23099 7.34379 2.3004 7.19981 2.37169 7.05995C2.44298 6.92009 2.51802 6.78639 2.59307 6.65682C2.6925 6.48404 2.79755 6.31333 2.90449 6.14673C3.01142 5.98012 3.12398 5.81352 3.23842 5.65103C3.35286 5.48855 3.47105 5.32812 3.59487 5.1718C3.71681 5.01548 3.84251 4.86122 3.97195 4.70902C4.1014 4.55681 4.2346 4.40872 4.37155 4.26063C4.5085 4.1146 4.6492 3.97062 4.79366 3.8287C4.93811 3.68678 5.08632 3.54898 5.2364 3.41323C5.38836 3.27748 5.5422 3.14378 5.70166 3.0142C5.86112 2.88257 6.02246 2.75505 6.18943 2.62958C6.3564 2.50412 6.52524 2.38071 6.69971 2.26141C6.87231 2.14212 7.05053 2.02282 7.23063 1.9097C7.41073 1.79452 7.59646 1.68345 7.78406 1.57238C7.97167 1.46337 8.16302 1.35642 8.36001 1.25152C8.55511 1.14662 8.75397 1.04584 8.95659 0.947111C9.1592 0.848384 9.36556 0.751714 9.57568 0.657101C9.78579 0.562487 9.99966 0.471988 10.2173 0.383545L10.3749 0.609794L10.5325 0.836043L10.69 1.06229L10.8476 1.28854L11.0052 1.51479L11.1628 1.74104L11.3204 1.96729L11.478 2.19354L11.6356 2.41979L11.7932 2.64604L11.9507 2.87229L12.1083 3.09853L12.2659 3.32478L12.4235 3.55103L12.5811 3.77728L12.7387 4.00353C12.6074 4.05289 12.4779 4.10431 12.3503 4.15779C12.2228 4.21127 12.0989 4.26475 11.9751 4.32028C11.8532 4.37581 11.7312 4.4334 11.6131 4.49305C11.4949 4.5527 11.3786 4.61235 11.2641 4.67405C11.1497 4.73575 11.039 4.79952 10.9283 4.86328C10.8195 4.92909 10.7107 4.99491 10.6056 5.06279C10.5006 5.13066 10.3974 5.20059 10.2961 5.27052C10.1948 5.34251 10.0953 5.4145 9.99966 5.48855C9.90211 5.56259 9.80831 5.63869 9.71638 5.7148C9.62446 5.7909 9.53441 5.87111 9.44623 5.95133C9.35806 6.03155 9.27176 6.11382 9.18921 6.19609C9.10479 6.27836 9.02412 6.36475 8.94533 6.44908C8.86654 6.53546 8.78962 6.62391 8.7127 6.71235C8.63766 6.80079 8.56449 6.89129 8.4932 6.98385C8.42191 7.0764 8.35438 7.16896 8.28684 7.26563C8.2193 7.3623 8.15552 7.45691 8.09361 7.55564C8.0317 7.65437 7.97167 7.75515 7.91163 7.86005C7.85348 7.96495 7.79532 8.06984 7.74091 8.18091C7.68651 8.28992 7.6321 8.40305 7.57957 8.51823C7.52704 8.63341 7.47827 8.75065 7.42949 8.872C7.38071 8.99335 7.33381 9.11676 7.28879 9.24223C7.24376 9.36769 7.20061 9.49727 7.15934 9.62891C7.11807 9.76054 7.07867 9.89629 7.03928 10.0341C7.00175 10.1719 6.96423 10.3118 6.93047 10.4557C6.8967 10.5997 6.86293 10.7458 6.83103 10.8938C6.79914 11.0419 6.771 11.1941 6.74286 11.3484C6.71472 11.5027 6.68846 11.659 6.66407 11.8194C6.63968 11.9798 6.61717 12.1423 6.59653 12.3069C6.57589 12.4714 6.55713 12.6401 6.53837 12.8128C6.52149 12.9836 6.5046 13.1584 6.49147 13.3353C6.47834 13.5122 6.46521 13.6911 6.45395 13.8742C6.4427 14.0572 6.43519 14.2423 6.42769 14.4295H6.7635H7.09931H7.43512H7.77093H8.10674H8.44443H8.78024H9.11605H9.45374H9.78955H10.1385H10.4762H10.812H11.1478H11.4855H11.8213V14.446Z" fill="#6F64E7"/>
<path d="M26.9628 14.446V15.1226V15.7993V16.476V17.1527V17.8294V18.5061V19.1828V19.8595V20.5362V21.2129V21.8896V22.5662V23.2429V23.9196V24.5963V25.273H26.2706H25.5783H24.8861H24.1938H23.5016H22.8093H22.117H21.4248H20.7325H20.0403H19.348H18.6558H17.9635H17.2712H16.579H15.8867V24.7382V24.2035V23.6687V23.1339V22.5991V22.0644V21.5296V20.9948V20.4601V19.9253V19.3905V18.8558V18.321V17.7862V17.2514V16.7167C15.8867 16.4267 15.8886 16.1428 15.8942 15.8631C15.8999 15.5834 15.9055 15.3098 15.9149 15.0404C15.9242 14.7709 15.9355 14.5056 15.9505 14.2464C15.9655 13.9873 15.9824 13.7322 16.0012 13.4834C16.0199 13.2345 16.0424 12.9897 16.0649 12.7491C16.0893 12.5105 16.1156 12.274 16.1437 12.0457C16.1719 11.8174 16.2038 11.5911 16.2375 11.371C16.2713 11.1509 16.307 10.937 16.3445 10.7272C16.382 10.5174 16.4233 10.3138 16.4664 10.1143C16.5096 9.9148 16.5546 9.71941 16.6034 9.53018C16.6503 9.34095 16.7009 9.15584 16.7534 8.9769C16.806 8.79795 16.8604 8.62313 16.9185 8.45241C16.9767 8.28375 17.0349 8.11715 17.0968 7.95878C17.1587 7.79834 17.2225 7.64408 17.29 7.49394C17.3575 7.34379 17.4269 7.19981 17.4982 7.05995C17.5695 6.92009 17.6446 6.78639 17.7196 6.65682C17.819 6.48404 17.9241 6.31333 18.031 6.14673C18.138 5.98012 18.2505 5.81352 18.365 5.65103C18.4794 5.48855 18.5976 5.32812 18.7214 5.1718C18.8434 5.01548 18.969 4.86122 19.0985 4.70902C19.2279 4.55681 19.3611 4.40872 19.4981 4.26063C19.635 4.1146 19.7757 3.97062 19.9202 3.8287C20.0647 3.68678 20.2129 3.54898 20.3629 3.41323C20.5149 3.27748 20.6687 3.14378 20.8282 3.0142C20.9877 2.88257 21.149 2.75505 21.316 2.62958C21.4829 2.50412 21.6518 2.38071 21.8263 2.26141C21.9988 2.14212 22.1771 2.02282 22.3572 1.9097C22.5373 1.79452 22.723 1.68345 22.9106 1.57238C23.0982 1.46337 23.2896 1.35642 23.4865 1.25152C23.6817 1.14662 23.8805 1.04584 24.0831 0.947111C24.2857 0.848384 24.4921 0.751714 24.7022 0.657101C24.9123 0.562487 25.1262 0.471988 25.3438 0.383545L25.5014 0.609794L25.659 0.836043L25.8166 1.06229L25.9742 1.28854L26.1318 1.51479L26.2893 1.74104L26.4469 1.96729L26.6045 2.19354L26.7621 2.41979L26.9197 2.64604L27.0773 2.87229L27.2349 3.09853L27.3925 3.32478L27.55 3.55103L27.7076 3.77728L27.8652 4.00353C27.7339 4.05289 27.6044 4.10431 27.4769 4.15779C27.3493 4.21127 27.2255 4.26475 27.1017 4.32028C26.9797 4.37581 26.8578 4.4334 26.7396 4.49305C26.6214 4.5527 26.5051 4.61235 26.3907 4.67405C26.2762 4.73575 26.1655 4.79952 26.0548 4.86328C25.946 4.92909 25.8372 4.99491 25.7322 5.06279C25.6271 5.13066 25.5239 5.20059 25.4226 5.27052C25.3213 5.34251 25.2219 5.4145 25.1262 5.48855C25.0286 5.56259 24.9348 5.63869 24.8429 5.7148C24.751 5.7909 24.6609 5.87111 24.5728 5.95133C24.4846 6.03155 24.3983 6.11382 24.3158 6.19609C24.2313 6.27836 24.1507 6.36475 24.0719 6.44908C23.9931 6.53546 23.9162 6.62391 23.8392 6.71235C23.7642 6.80079 23.691 6.89129 23.6197 6.98385C23.5485 7.0764 23.4809 7.16896 23.4134 7.26563C23.3477 7.36024 23.2821 7.45691 23.2201 7.55564C23.1582 7.65437 23.0982 7.75515 23.0382 7.86005C22.98 7.96495 22.9219 8.06984 22.8675 8.18091C22.813 8.28992 22.7586 8.40305 22.7061 8.51823C22.6536 8.63341 22.6048 8.75065 22.556 8.872C22.5073 8.99335 22.4604 9.11676 22.4153 9.24223C22.3703 9.36769 22.3272 9.49727 22.2859 9.62891C22.2446 9.76054 22.2052 9.89629 22.1658 10.0341C22.1283 10.1719 22.0908 10.3118 22.057 10.4557C22.0232 10.5997 21.9895 10.7458 21.9576 10.8938C21.9257 11.0419 21.8975 11.1941 21.8694 11.3484C21.8413 11.5027 21.815 11.659 21.7906 11.8194C21.7662 11.9798 21.7437 12.1423 21.7231 12.3069C21.7024 12.4714 21.6837 12.6401 21.6649 12.8128C21.648 12.9836 21.6311 13.1584 21.618 13.3353C21.6049 13.5122 21.5917 13.6911 21.5805 13.8742C21.5692 14.0572 21.5617 14.2423 21.5542 14.4295H21.8919H22.2296H22.5673H22.905H23.2427H23.5803H23.918H24.2557H24.5934H24.9311H25.2688H25.6065H25.9442H26.2818H26.6195H26.9628V14.446Z" fill="#6F64E7"/>
</g>
<defs>
<clipPath id="clip0_2876_19136">
<rect width="27.12" height="24.8915" fill="white" transform="translate(0.758301 0.393799)"/>
</clipPath>
</defs>
</svg>
